<mxfile host="app.diagrams.net" agent="Mozilla/5.0 (Windows NT 10.0; Win64; x64) AppleWebKit/537.36 (KHTML, like Gecko) Chrome/133.0.0.0 Safari/537.36" version="26.0.16">
  <diagram name="第 1 页" id="AhIwzy8H9LofaHb_ELJj">
    <mxGraphModel dx="594" dy="321" grid="1" gridSize="10" guides="1" tooltips="1" connect="1" arrows="1" fold="1" page="0" pageScale="1" pageWidth="827" pageHeight="1169" math="0" shadow="0">
      <root>
        <mxCell id="0" />
        <mxCell id="1" parent="0" />
        <mxCell id="zZEJ-Zmq993R97W6KM-o-45" style="edgeStyle=none;curved=1;rounded=0;orthogonalLoop=1;jettySize=auto;html=1;entryX=0.75;entryY=1;entryDx=0;entryDy=0;fontSize=12;startSize=8;endSize=8;" edge="1" parent="1" source="zZEJ-Zmq993R97W6KM-o-2" target="zZEJ-Zmq993R97W6KM-o-1">
          <mxGeometry relative="1" as="geometry" />
        </mxCell>
        <mxCell id="zZEJ-Zmq993R97W6KM-o-47" style="edgeStyle=orthogonalEdgeStyle;shape=connector;rounded=0;orthogonalLoop=1;jettySize=auto;html=1;entryX=0.5;entryY=0;entryDx=0;entryDy=0;strokeColor=default;align=center;verticalAlign=middle;fontFamily=Helvetica;fontSize=12;fontColor=default;labelBackgroundColor=default;startSize=8;endArrow=classicThin;endSize=8;endFill=1;" edge="1" parent="1" source="zZEJ-Zmq993R97W6KM-o-1" target="zZEJ-Zmq993R97W6KM-o-32">
          <mxGeometry relative="1" as="geometry">
            <Array as="points">
              <mxPoint x="168" y="75" />
            </Array>
          </mxGeometry>
        </mxCell>
        <mxCell id="zZEJ-Zmq993R97W6KM-o-65" style="edgeStyle=orthogonalEdgeStyle;shape=connector;rounded=0;orthogonalLoop=1;jettySize=auto;html=1;strokeColor=default;align=center;verticalAlign=middle;fontFamily=Helvetica;fontSize=12;fontColor=default;labelBackgroundColor=default;startSize=8;endArrow=none;endFill=1;endSize=8;startFill=0;entryX=1;entryY=0.5;entryDx=0;entryDy=0;" edge="1" parent="1" source="zZEJ-Zmq993R97W6KM-o-1" target="zZEJ-Zmq993R97W6KM-o-19">
          <mxGeometry relative="1" as="geometry">
            <mxPoint x="80" y="180" as="targetPoint" />
            <Array as="points">
              <mxPoint x="80" y="75" />
              <mxPoint x="80" y="175" />
            </Array>
          </mxGeometry>
        </mxCell>
        <mxCell id="zZEJ-Zmq993R97W6KM-o-1" value="" style="shape=table;startSize=0;container=1;collapsible=0;childLayout=tableLayout;fontSize=16;" vertex="1" parent="1">
          <mxGeometry x="20" y="70" width="40" height="10" as="geometry" />
        </mxCell>
        <mxCell id="zZEJ-Zmq993R97W6KM-o-2" value="" style="shape=tableRow;horizontal=0;startSize=0;swimlaneHead=0;swimlaneBody=0;strokeColor=inherit;top=0;left=0;bottom=0;right=0;collapsible=0;dropTarget=0;fillColor=none;points=[[0,0.5],[1,0.5]];portConstraint=eastwest;fontSize=16;" vertex="1" parent="zZEJ-Zmq993R97W6KM-o-1">
          <mxGeometry width="40" height="10" as="geometry" />
        </mxCell>
        <mxCell id="zZEJ-Zmq993R97W6KM-o-3" value="" style="shape=partialRectangle;html=1;whiteSpace=wrap;connectable=0;strokeColor=#d6b656;overflow=hidden;fillColor=#D5E8D4;top=0;left=0;bottom=0;right=0;pointerEvents=1;fontSize=16;" vertex="1" parent="zZEJ-Zmq993R97W6KM-o-2">
          <mxGeometry width="10" height="10" as="geometry">
            <mxRectangle width="10" height="10" as="alternateBounds" />
          </mxGeometry>
        </mxCell>
        <mxCell id="zZEJ-Zmq993R97W6KM-o-4" value="" style="shape=partialRectangle;html=1;whiteSpace=wrap;connectable=0;strokeColor=#d6b656;overflow=hidden;fillColor=#D5E8D4;top=0;left=0;bottom=0;right=0;pointerEvents=1;fontSize=16;" vertex="1" parent="zZEJ-Zmq993R97W6KM-o-2">
          <mxGeometry x="10" width="10" height="10" as="geometry">
            <mxRectangle width="10" height="10" as="alternateBounds" />
          </mxGeometry>
        </mxCell>
        <mxCell id="zZEJ-Zmq993R97W6KM-o-5" value="" style="shape=partialRectangle;html=1;whiteSpace=wrap;connectable=0;strokeColor=#d6b656;overflow=hidden;fillColor=#9AC7BF;top=0;left=0;bottom=0;right=0;pointerEvents=1;fontSize=16;" vertex="1" parent="zZEJ-Zmq993R97W6KM-o-2">
          <mxGeometry x="20" width="10" height="10" as="geometry">
            <mxRectangle width="10" height="10" as="alternateBounds" />
          </mxGeometry>
        </mxCell>
        <mxCell id="zZEJ-Zmq993R97W6KM-o-6" style="shape=partialRectangle;html=1;whiteSpace=wrap;connectable=0;strokeColor=#333300;overflow=hidden;fillColor=#67AB9F;top=0;left=0;bottom=0;right=0;pointerEvents=1;fontSize=16;" vertex="1" parent="zZEJ-Zmq993R97W6KM-o-2">
          <mxGeometry x="30" width="10" height="10" as="geometry">
            <mxRectangle width="10" height="10" as="alternateBounds" />
          </mxGeometry>
        </mxCell>
        <mxCell id="zZEJ-Zmq993R97W6KM-o-18" value="" style="shape=table;startSize=0;container=1;collapsible=0;childLayout=tableLayout;fontSize=16;" vertex="1" parent="1">
          <mxGeometry x="20" y="170" width="40" height="10" as="geometry" />
        </mxCell>
        <mxCell id="zZEJ-Zmq993R97W6KM-o-19" value="" style="shape=tableRow;horizontal=0;startSize=0;swimlaneHead=0;swimlaneBody=0;strokeColor=inherit;top=0;left=0;bottom=0;right=0;collapsible=0;dropTarget=0;fillColor=none;points=[[0,0.5],[1,0.5]];portConstraint=eastwest;fontSize=16;" vertex="1" parent="zZEJ-Zmq993R97W6KM-o-18">
          <mxGeometry width="40" height="10" as="geometry" />
        </mxCell>
        <mxCell id="zZEJ-Zmq993R97W6KM-o-20" value="" style="shape=partialRectangle;html=1;whiteSpace=wrap;connectable=0;strokeColor=#d6b656;overflow=hidden;fillColor=#99CCFF;top=0;left=0;bottom=0;right=0;pointerEvents=1;fontSize=16;" vertex="1" parent="zZEJ-Zmq993R97W6KM-o-19">
          <mxGeometry width="10" height="10" as="geometry">
            <mxRectangle width="10" height="10" as="alternateBounds" />
          </mxGeometry>
        </mxCell>
        <mxCell id="zZEJ-Zmq993R97W6KM-o-21" value="" style="shape=partialRectangle;html=1;whiteSpace=wrap;connectable=0;strokeColor=#d6b656;overflow=hidden;fillColor=#66B2FF;top=0;left=0;bottom=0;right=0;pointerEvents=1;fontSize=16;" vertex="1" parent="zZEJ-Zmq993R97W6KM-o-19">
          <mxGeometry x="10" width="10" height="10" as="geometry">
            <mxRectangle width="10" height="10" as="alternateBounds" />
          </mxGeometry>
        </mxCell>
        <mxCell id="zZEJ-Zmq993R97W6KM-o-22" value="" style="shape=partialRectangle;html=1;whiteSpace=wrap;connectable=0;strokeColor=#d6b656;overflow=hidden;fillColor=#3399FF;top=0;left=0;bottom=0;right=0;pointerEvents=1;fontSize=16;" vertex="1" parent="zZEJ-Zmq993R97W6KM-o-19">
          <mxGeometry x="20" width="10" height="10" as="geometry">
            <mxRectangle width="10" height="10" as="alternateBounds" />
          </mxGeometry>
        </mxCell>
        <mxCell id="zZEJ-Zmq993R97W6KM-o-23" style="shape=partialRectangle;html=1;whiteSpace=wrap;connectable=0;strokeColor=#333300;overflow=hidden;fillColor=#0066CC;top=0;left=0;bottom=0;right=0;pointerEvents=1;fontSize=16;" vertex="1" parent="zZEJ-Zmq993R97W6KM-o-19">
          <mxGeometry x="30" width="10" height="10" as="geometry">
            <mxRectangle width="10" height="10" as="alternateBounds" />
          </mxGeometry>
        </mxCell>
        <mxCell id="zZEJ-Zmq993R97W6KM-o-51" style="edgeStyle=orthogonalEdgeStyle;shape=connector;rounded=0;orthogonalLoop=1;jettySize=auto;html=1;entryX=0;entryY=0.5;entryDx=0;entryDy=0;strokeColor=default;align=center;verticalAlign=middle;fontFamily=Helvetica;fontSize=12;fontColor=default;labelBackgroundColor=default;startSize=8;endArrow=classicThin;endFill=1;endSize=8;" edge="1" parent="1" source="zZEJ-Zmq993R97W6KM-o-24" target="zZEJ-Zmq993R97W6KM-o-30">
          <mxGeometry relative="1" as="geometry" />
        </mxCell>
        <mxCell id="zZEJ-Zmq993R97W6KM-o-24" value="" style="shape=table;startSize=0;container=1;collapsible=0;childLayout=tableLayout;fontSize=16;" vertex="1" parent="1">
          <mxGeometry x="20" y="117" width="40" height="10" as="geometry" />
        </mxCell>
        <mxCell id="zZEJ-Zmq993R97W6KM-o-25" value="" style="shape=tableRow;horizontal=0;startSize=0;swimlaneHead=0;swimlaneBody=0;strokeColor=inherit;top=0;left=0;bottom=0;right=0;collapsible=0;dropTarget=0;fillColor=none;points=[[0,0.5],[1,0.5]];portConstraint=eastwest;fontSize=16;" vertex="1" parent="zZEJ-Zmq993R97W6KM-o-24">
          <mxGeometry width="40" height="10" as="geometry" />
        </mxCell>
        <mxCell id="zZEJ-Zmq993R97W6KM-o-26" value="" style="shape=partialRectangle;html=1;whiteSpace=wrap;connectable=0;strokeColor=#d6b656;overflow=hidden;fillColor=#FFE6CC;top=0;left=0;bottom=0;right=0;pointerEvents=1;fontSize=16;" vertex="1" parent="zZEJ-Zmq993R97W6KM-o-25">
          <mxGeometry width="10" height="10" as="geometry">
            <mxRectangle width="10" height="10" as="alternateBounds" />
          </mxGeometry>
        </mxCell>
        <mxCell id="zZEJ-Zmq993R97W6KM-o-27" value="" style="shape=partialRectangle;html=1;whiteSpace=wrap;connectable=0;strokeColor=#d6b656;overflow=hidden;fillColor=#FFCC99;top=0;left=0;bottom=0;right=0;pointerEvents=1;fontSize=16;" vertex="1" parent="zZEJ-Zmq993R97W6KM-o-25">
          <mxGeometry x="10" width="10" height="10" as="geometry">
            <mxRectangle width="10" height="10" as="alternateBounds" />
          </mxGeometry>
        </mxCell>
        <mxCell id="zZEJ-Zmq993R97W6KM-o-28" value="" style="shape=partialRectangle;html=1;whiteSpace=wrap;connectable=0;strokeColor=#d6b656;overflow=hidden;fillColor=#FFB366;top=0;left=0;bottom=0;right=0;pointerEvents=1;fontSize=16;" vertex="1" parent="zZEJ-Zmq993R97W6KM-o-25">
          <mxGeometry x="20" width="10" height="10" as="geometry">
            <mxRectangle width="10" height="10" as="alternateBounds" />
          </mxGeometry>
        </mxCell>
        <mxCell id="zZEJ-Zmq993R97W6KM-o-29" style="shape=partialRectangle;html=1;whiteSpace=wrap;connectable=0;strokeColor=#333300;overflow=hidden;fillColor=#FF9933;top=0;left=0;bottom=0;right=0;pointerEvents=1;fontSize=16;" vertex="1" parent="zZEJ-Zmq993R97W6KM-o-25">
          <mxGeometry x="30" width="10" height="10" as="geometry">
            <mxRectangle width="10" height="10" as="alternateBounds" />
          </mxGeometry>
        </mxCell>
        <mxCell id="zZEJ-Zmq993R97W6KM-o-54" style="edgeStyle=orthogonalEdgeStyle;shape=connector;rounded=0;orthogonalLoop=1;jettySize=auto;html=1;entryX=0;entryY=0.5;entryDx=0;entryDy=0;strokeColor=default;align=center;verticalAlign=middle;fontFamily=Helvetica;fontSize=12;fontColor=default;labelBackgroundColor=default;startSize=8;endArrow=classicThin;endFill=1;endSize=8;" edge="1" parent="1" source="zZEJ-Zmq993R97W6KM-o-30" target="zZEJ-Zmq993R97W6KM-o-32">
          <mxGeometry relative="1" as="geometry" />
        </mxCell>
        <mxCell id="zZEJ-Zmq993R97W6KM-o-30" value="" style="rounded=1;whiteSpace=wrap;html=1;" vertex="1" parent="1">
          <mxGeometry x="110" y="90" width="20" height="17" as="geometry" />
        </mxCell>
        <mxCell id="zZEJ-Zmq993R97W6KM-o-55" style="edgeStyle=orthogonalEdgeStyle;shape=connector;rounded=0;orthogonalLoop=1;jettySize=auto;html=1;entryX=0;entryY=0.5;entryDx=0;entryDy=0;strokeColor=default;align=center;verticalAlign=middle;fontFamily=Helvetica;fontSize=12;fontColor=default;labelBackgroundColor=default;startSize=8;endArrow=classicThin;endFill=1;endSize=8;" edge="1" parent="1" source="zZEJ-Zmq993R97W6KM-o-31" target="zZEJ-Zmq993R97W6KM-o-33">
          <mxGeometry relative="1" as="geometry" />
        </mxCell>
        <mxCell id="zZEJ-Zmq993R97W6KM-o-61" style="edgeStyle=orthogonalEdgeStyle;shape=connector;rounded=0;orthogonalLoop=1;jettySize=auto;html=1;entryX=0.5;entryY=1;entryDx=0;entryDy=0;strokeColor=default;align=center;verticalAlign=middle;fontFamily=Helvetica;fontSize=12;fontColor=default;labelBackgroundColor=default;startSize=8;endArrow=classicThin;endFill=1;endSize=8;" edge="1" parent="1" source="zZEJ-Zmq993R97W6KM-o-31" target="zZEJ-Zmq993R97W6KM-o-35">
          <mxGeometry relative="1" as="geometry">
            <Array as="points">
              <mxPoint x="190" y="149" />
              <mxPoint x="190" y="160" />
              <mxPoint x="258" y="160" />
            </Array>
          </mxGeometry>
        </mxCell>
        <mxCell id="zZEJ-Zmq993R97W6KM-o-31" value="" style="rounded=1;whiteSpace=wrap;html=1;" vertex="1" parent="1">
          <mxGeometry x="110" y="140" width="20" height="17" as="geometry" />
        </mxCell>
        <mxCell id="zZEJ-Zmq993R97W6KM-o-56" style="edgeStyle=orthogonalEdgeStyle;shape=connector;rounded=0;orthogonalLoop=1;jettySize=auto;html=1;strokeColor=default;align=center;verticalAlign=middle;fontFamily=Helvetica;fontSize=12;fontColor=default;labelBackgroundColor=default;startSize=8;endArrow=classicThin;endFill=1;endSize=8;" edge="1" parent="1" source="zZEJ-Zmq993R97W6KM-o-32" target="zZEJ-Zmq993R97W6KM-o-34">
          <mxGeometry relative="1" as="geometry" />
        </mxCell>
        <mxCell id="zZEJ-Zmq993R97W6KM-o-32" value="" style="ellipse;whiteSpace=wrap;html=1;aspect=fixed;" vertex="1" parent="1">
          <mxGeometry x="160" y="91" width="15" height="15" as="geometry" />
        </mxCell>
        <mxCell id="zZEJ-Zmq993R97W6KM-o-58" style="edgeStyle=orthogonalEdgeStyle;shape=connector;rounded=0;orthogonalLoop=1;jettySize=auto;html=1;entryX=0;entryY=0.5;entryDx=0;entryDy=0;strokeColor=default;align=center;verticalAlign=middle;fontFamily=Helvetica;fontSize=12;fontColor=default;labelBackgroundColor=default;startSize=8;endArrow=classicThin;endFill=1;endSize=8;" edge="1" parent="1" source="zZEJ-Zmq993R97W6KM-o-33" target="zZEJ-Zmq993R97W6KM-o-37">
          <mxGeometry relative="1" as="geometry" />
        </mxCell>
        <mxCell id="zZEJ-Zmq993R97W6KM-o-33" value="" style="ellipse;whiteSpace=wrap;html=1;aspect=fixed;" vertex="1" parent="1">
          <mxGeometry x="207.5" y="141" width="15" height="15" as="geometry" />
        </mxCell>
        <mxCell id="zZEJ-Zmq993R97W6KM-o-57" style="edgeStyle=orthogonalEdgeStyle;shape=connector;rounded=0;orthogonalLoop=1;jettySize=auto;html=1;entryX=0.5;entryY=0;entryDx=0;entryDy=0;strokeColor=default;align=center;verticalAlign=middle;fontFamily=Helvetica;fontSize=12;fontColor=default;labelBackgroundColor=default;startSize=8;endArrow=classicThin;endFill=1;endSize=8;" edge="1" parent="1" source="zZEJ-Zmq993R97W6KM-o-34" target="zZEJ-Zmq993R97W6KM-o-33">
          <mxGeometry relative="1" as="geometry" />
        </mxCell>
        <mxCell id="zZEJ-Zmq993R97W6KM-o-34" value="" style="rounded=1;whiteSpace=wrap;html=1;" vertex="1" parent="1">
          <mxGeometry x="205" y="90" width="20" height="17" as="geometry" />
        </mxCell>
        <mxCell id="zZEJ-Zmq993R97W6KM-o-63" style="edgeStyle=orthogonalEdgeStyle;shape=connector;rounded=0;orthogonalLoop=1;jettySize=auto;html=1;entryX=0;entryY=1;entryDx=0;entryDy=0;strokeColor=default;align=center;verticalAlign=middle;fontFamily=Helvetica;fontSize=12;fontColor=default;labelBackgroundColor=default;startSize=8;endArrow=classicThin;endFill=1;endSize=8;" edge="1" parent="1" source="zZEJ-Zmq993R97W6KM-o-35" target="zZEJ-Zmq993R97W6KM-o-36">
          <mxGeometry relative="1" as="geometry">
            <Array as="points">
              <mxPoint x="258" y="97" />
              <mxPoint x="282" y="97" />
            </Array>
          </mxGeometry>
        </mxCell>
        <mxCell id="zZEJ-Zmq993R97W6KM-o-35" value="" style="ellipse;whiteSpace=wrap;html=1;aspect=fixed;" vertex="1" parent="1">
          <mxGeometry x="250" y="112" width="15" height="15" as="geometry" />
        </mxCell>
        <mxCell id="zZEJ-Zmq993R97W6KM-o-64" style="edgeStyle=orthogonalEdgeStyle;shape=connector;rounded=0;orthogonalLoop=1;jettySize=auto;html=1;strokeColor=default;align=center;verticalAlign=middle;fontFamily=Helvetica;fontSize=12;fontColor=default;labelBackgroundColor=default;startSize=8;endArrow=classicThin;endFill=1;endSize=8;" edge="1" parent="1" source="zZEJ-Zmq993R97W6KM-o-36">
          <mxGeometry relative="1" as="geometry">
            <mxPoint x="287.5" y="140" as="targetPoint" />
          </mxGeometry>
        </mxCell>
        <mxCell id="zZEJ-Zmq993R97W6KM-o-36" value="" style="ellipse;whiteSpace=wrap;html=1;aspect=fixed;" vertex="1" parent="1">
          <mxGeometry x="280" y="67.5" width="15" height="15" as="geometry" />
        </mxCell>
        <mxCell id="zZEJ-Zmq993R97W6KM-o-60" style="edgeStyle=orthogonalEdgeStyle;shape=connector;rounded=0;orthogonalLoop=1;jettySize=auto;html=1;entryX=0;entryY=0.5;entryDx=0;entryDy=0;strokeColor=default;align=center;verticalAlign=middle;fontFamily=Helvetica;fontSize=12;fontColor=default;labelBackgroundColor=default;startSize=8;endArrow=classicThin;endFill=1;endSize=8;" edge="1" parent="1" source="zZEJ-Zmq993R97W6KM-o-37" target="zZEJ-Zmq993R97W6KM-o-39">
          <mxGeometry relative="1" as="geometry" />
        </mxCell>
        <mxCell id="zZEJ-Zmq993R97W6KM-o-37" value="" style="ellipse;whiteSpace=wrap;html=1;aspect=fixed;" vertex="1" parent="1">
          <mxGeometry x="280" y="141" width="15" height="15" as="geometry" />
        </mxCell>
        <mxCell id="zZEJ-Zmq993R97W6KM-o-38" value="" style="shape=table;startSize=0;container=1;collapsible=0;childLayout=tableLayout;fontSize=16;" vertex="1" parent="1">
          <mxGeometry x="330" y="143.5" width="40" height="10" as="geometry" />
        </mxCell>
        <mxCell id="zZEJ-Zmq993R97W6KM-o-39" value="" style="shape=tableRow;horizontal=0;startSize=0;swimlaneHead=0;swimlaneBody=0;strokeColor=inherit;top=0;left=0;bottom=0;right=0;collapsible=0;dropTarget=0;fillColor=none;points=[[0,0.5],[1,0.5]];portConstraint=eastwest;fontSize=16;" vertex="1" parent="zZEJ-Zmq993R97W6KM-o-38">
          <mxGeometry width="40" height="10" as="geometry" />
        </mxCell>
        <mxCell id="zZEJ-Zmq993R97W6KM-o-40" value="" style="shape=partialRectangle;html=1;whiteSpace=wrap;connectable=0;strokeColor=#d6b656;overflow=hidden;fillColor=#FFCCCC;top=0;left=0;bottom=0;right=0;pointerEvents=1;fontSize=16;" vertex="1" parent="zZEJ-Zmq993R97W6KM-o-39">
          <mxGeometry width="10" height="10" as="geometry">
            <mxRectangle width="10" height="10" as="alternateBounds" />
          </mxGeometry>
        </mxCell>
        <mxCell id="zZEJ-Zmq993R97W6KM-o-41" value="" style="shape=partialRectangle;html=1;whiteSpace=wrap;connectable=0;strokeColor=#d6b656;overflow=hidden;fillColor=#FF9999;top=0;left=0;bottom=0;right=0;pointerEvents=1;fontSize=16;" vertex="1" parent="zZEJ-Zmq993R97W6KM-o-39">
          <mxGeometry x="10" width="10" height="10" as="geometry">
            <mxRectangle width="10" height="10" as="alternateBounds" />
          </mxGeometry>
        </mxCell>
        <mxCell id="zZEJ-Zmq993R97W6KM-o-42" value="" style="shape=partialRectangle;html=1;whiteSpace=wrap;connectable=0;strokeColor=#d6b656;overflow=hidden;fillColor=#FF6666;top=0;left=0;bottom=0;right=0;pointerEvents=1;fontSize=16;" vertex="1" parent="zZEJ-Zmq993R97W6KM-o-39">
          <mxGeometry x="20" width="10" height="10" as="geometry">
            <mxRectangle width="10" height="10" as="alternateBounds" />
          </mxGeometry>
        </mxCell>
        <mxCell id="zZEJ-Zmq993R97W6KM-o-43" style="shape=partialRectangle;html=1;whiteSpace=wrap;connectable=0;strokeColor=#333300;overflow=hidden;fillColor=#FF3333;top=0;left=0;bottom=0;right=0;pointerEvents=1;fontSize=16;" vertex="1" parent="zZEJ-Zmq993R97W6KM-o-39">
          <mxGeometry x="30" width="10" height="10" as="geometry">
            <mxRectangle width="10" height="10" as="alternateBounds" />
          </mxGeometry>
        </mxCell>
        <mxCell id="zZEJ-Zmq993R97W6KM-o-44" style="edgeStyle=orthogonalEdgeStyle;rounded=0;orthogonalLoop=1;jettySize=auto;html=1;fontSize=12;startSize=8;endSize=8;entryX=0;entryY=0.5;entryDx=0;entryDy=0;endArrow=classicThin;endFill=1;" edge="1" parent="1" source="zZEJ-Zmq993R97W6KM-o-2" target="zZEJ-Zmq993R97W6KM-o-36">
          <mxGeometry relative="1" as="geometry">
            <mxPoint x="270" y="75" as="targetPoint" />
          </mxGeometry>
        </mxCell>
        <mxCell id="zZEJ-Zmq993R97W6KM-o-52" style="edgeStyle=orthogonalEdgeStyle;shape=connector;rounded=0;orthogonalLoop=1;jettySize=auto;html=1;entryX=0;entryY=0.5;entryDx=0;entryDy=0;strokeColor=default;align=center;verticalAlign=middle;fontFamily=Helvetica;fontSize=12;fontColor=default;labelBackgroundColor=default;startSize=8;endArrow=classicThin;endFill=1;endSize=8;" edge="1" parent="1" source="zZEJ-Zmq993R97W6KM-o-25" target="zZEJ-Zmq993R97W6KM-o-31">
          <mxGeometry relative="1" as="geometry" />
        </mxCell>
        <mxCell id="zZEJ-Zmq993R97W6KM-o-66" style="edgeStyle=orthogonalEdgeStyle;shape=connector;rounded=0;orthogonalLoop=1;jettySize=auto;html=1;strokeColor=default;align=center;verticalAlign=middle;fontFamily=Helvetica;fontSize=12;fontColor=default;labelBackgroundColor=default;startFill=0;startSize=8;endArrow=none;endFill=1;endSize=8;" edge="1" parent="1">
          <mxGeometry relative="1" as="geometry">
            <mxPoint x="190" y="100" as="targetPoint" />
            <mxPoint x="70" y="175" as="sourcePoint" />
          </mxGeometry>
        </mxCell>
      </root>
    </mxGraphModel>
  </diagram>
</mxfile>
